<?xml version="1.0" encoding="utf-8" standalone="no"?>
<!DOCTYPE svg PUBLIC "-//W3C//DTD SVG 1.1//EN"
  "http://www.w3.org/Graphics/SVG/1.1/DTD/svg11.dtd">
<svg xmlns:xlink="http://www.w3.org/1999/xlink" width="636.18805pt" height="420.076253pt" viewBox="0 0 636.18805 420.076253" xmlns="http://www.w3.org/2000/svg" version="1.1">
 <metadata>
  <rdf:RDF xmlns:dc="http://purl.org/dc/elements/1.1/" xmlns:cc="http://creativecommons.org/ns#" xmlns:rdf="http://www.w3.org/1999/02/22-rdf-syntax-ns#">
   <cc:Work>
    <dc:type rdf:resource="http://purl.org/dc/dcmitype/StillImage"/>
    <dc:date>2026-02-19T19:48:17.637892</dc:date>
    <dc:format>image/svg+xml</dc:format>
    <dc:creator>
     <cc:Agent>
      <dc:title>Matplotlib v3.10.5, https://matplotlib.org/</dc:title>
     </cc:Agent>
    </dc:creator>
   </cc:Work>
  </rdf:RDF>
 </metadata>
 <defs>
  <style type="text/css">*{stroke-linejoin: round; stroke-linecap: butt}</style>
 </defs>
 <g id="figure_1">
  <g id="patch_1">
   <path d="M 0 420.076253 
L 636.18805 420.076253 
L 636.18805 0 
L 0 0 
z
" style="fill: #ffffff"/>
  </g>
  <g id="axes_1">
   <g id="patch_2">
    <path d="M 47.1211 382.01407 
L 628.98805 382.01407 
L 628.98805 35.82312 
L 47.1211 35.82312 
z
" style="fill: #ffffff"/>
   </g>
   <g id="matplotlib.axis_1">
    <g id="xtick_1">
     <g id="text_1">
      <!-- MSS/MSI-L -->
      <g style="fill: #262626" transform="translate(90.615437 398.502608) scale(0.1144 -0.1144)">
       <defs>
        <path id="ArialMT-4d" d="M 475 0 
L 475 4581 
L 1388 4581 
L 2472 1338 
Q 2622 884 2691 659 
Q 2769 909 2934 1394 
L 4031 4581 
L 4847 4581 
L 4847 0 
L 4263 0 
L 4263 3834 
L 2931 0 
L 2384 0 
L 1059 3900 
L 1059 0 
L 475 0 
z
" transform="scale(0.015625)"/>
        <path id="ArialMT-53" d="M 288 1472 
L 859 1522 
Q 900 1178 1048 958 
Q 1197 738 1509 602 
Q 1822 466 2213 466 
Q 2559 466 2825 569 
Q 3091 672 3220 851 
Q 3350 1031 3350 1244 
Q 3350 1459 3225 1620 
Q 3100 1781 2813 1891 
Q 2628 1963 1997 2114 
Q 1366 2266 1113 2400 
Q 784 2572 623 2826 
Q 463 3081 463 3397 
Q 463 3744 659 4045 
Q 856 4347 1234 4503 
Q 1613 4659 2075 4659 
Q 2584 4659 2973 4495 
Q 3363 4331 3572 4012 
Q 3781 3694 3797 3291 
L 3216 3247 
Q 3169 3681 2898 3903 
Q 2628 4125 2100 4125 
Q 1550 4125 1298 3923 
Q 1047 3722 1047 3438 
Q 1047 3191 1225 3031 
Q 1400 2872 2139 2705 
Q 2878 2538 3153 2413 
Q 3553 2228 3743 1945 
Q 3934 1663 3934 1294 
Q 3934 928 3725 604 
Q 3516 281 3123 101 
Q 2731 -78 2241 -78 
Q 1619 -78 1198 103 
Q 778 284 539 648 
Q 300 1013 288 1472 
z
" transform="scale(0.015625)"/>
        <path id="ArialMT-2f" d="M 0 -78 
L 1328 4659 
L 1778 4659 
L 453 -78 
L 0 -78 
z
" transform="scale(0.015625)"/>
        <path id="ArialMT-49" d="M 597 0 
L 597 4581 
L 1203 4581 
L 1203 0 
L 597 0 
z
" transform="scale(0.015625)"/>
        <path id="ArialMT-2d" d="M 203 1375 
L 203 1941 
L 1931 1941 
L 1931 1375 
L 203 1375 
z
" transform="scale(0.015625)"/>
        <path id="ArialMT-4c" d="M 469 0 
L 469 4581 
L 1075 4581 
L 1075 541 
L 3331 541 
L 3331 0 
L 469 0 
z
" transform="scale(0.015625)"/>
       </defs>
       <use xlink:href="#ArialMT-4d"/>
       <use xlink:href="#ArialMT-53" transform="translate(83.300781 0)"/>
       <use xlink:href="#ArialMT-53" transform="translate(150 0)"/>
       <use xlink:href="#ArialMT-2f" transform="translate(216.699219 0)"/>
       <use xlink:href="#ArialMT-4d" transform="translate(244.482422 0)"/>
       <use xlink:href="#ArialMT-53" transform="translate(327.783203 0)"/>
       <use xlink:href="#ArialMT-49" transform="translate(394.482422 0)"/>
       <use xlink:href="#ArialMT-2d" transform="translate(422.265625 0)"/>
       <use xlink:href="#ArialMT-4c" transform="translate(455.566406 0)"/>
      </g>
      <!-- TP53-wt -->
      <g style="fill: #262626" transform="translate(98.559087 410.602553) scale(0.1144 -0.1144)">
       <defs>
        <path id="ArialMT-54" d="M 1659 0 
L 1659 4041 
L 150 4041 
L 150 4581 
L 3781 4581 
L 3781 4041 
L 2266 4041 
L 2266 0 
L 1659 0 
z
" transform="scale(0.015625)"/>
        <path id="ArialMT-50" d="M 494 0 
L 494 4581 
L 2222 4581 
Q 2678 4581 2919 4538 
Q 3256 4481 3484 4323 
Q 3713 4166 3852 3881 
Q 3991 3597 3991 3256 
Q 3991 2672 3619 2267 
Q 3247 1863 2275 1863 
L 1100 1863 
L 1100 0 
L 494 0 
z
M 1100 2403 
L 2284 2403 
Q 2872 2403 3119 2622 
Q 3366 2841 3366 3238 
Q 3366 3525 3220 3729 
Q 3075 3934 2838 4000 
Q 2684 4041 2272 4041 
L 1100 4041 
L 1100 2403 
z
" transform="scale(0.015625)"/>
        <path id="ArialMT-35" d="M 266 1200 
L 856 1250 
Q 922 819 1161 601 
Q 1400 384 1738 384 
Q 2144 384 2425 690 
Q 2706 997 2706 1503 
Q 2706 1984 2436 2262 
Q 2166 2541 1728 2541 
Q 1456 2541 1237 2417 
Q 1019 2294 894 2097 
L 366 2166 
L 809 4519 
L 3088 4519 
L 3088 3981 
L 1259 3981 
L 1013 2750 
Q 1425 3038 1878 3038 
Q 2478 3038 2890 2622 
Q 3303 2206 3303 1553 
Q 3303 931 2941 478 
Q 2500 -78 1738 -78 
Q 1113 -78 717 272 
Q 322 622 266 1200 
z
" transform="scale(0.015625)"/>
        <path id="ArialMT-33" d="M 269 1209 
L 831 1284 
Q 928 806 1161 595 
Q 1394 384 1728 384 
Q 2125 384 2398 659 
Q 2672 934 2672 1341 
Q 2672 1728 2419 1979 
Q 2166 2231 1775 2231 
Q 1616 2231 1378 2169 
L 1441 2663 
Q 1497 2656 1531 2656 
Q 1891 2656 2178 2843 
Q 2466 3031 2466 3422 
Q 2466 3731 2256 3934 
Q 2047 4138 1716 4138 
Q 1388 4138 1169 3931 
Q 950 3725 888 3313 
L 325 3413 
Q 428 3978 793 4289 
Q 1159 4600 1703 4600 
Q 2078 4600 2393 4439 
Q 2709 4278 2876 4000 
Q 3044 3722 3044 3409 
Q 3044 3113 2884 2869 
Q 2725 2625 2413 2481 
Q 2819 2388 3044 2092 
Q 3269 1797 3269 1353 
Q 3269 753 2831 336 
Q 2394 -81 1725 -81 
Q 1122 -81 723 278 
Q 325 638 269 1209 
z
" transform="scale(0.015625)"/>
        <path id="ArialMT-77" d="M 1034 0 
L 19 3319 
L 600 3319 
L 1128 1403 
L 1325 691 
Q 1338 744 1497 1375 
L 2025 3319 
L 2603 3319 
L 3100 1394 
L 3266 759 
L 3456 1400 
L 4025 3319 
L 4572 3319 
L 3534 0 
L 2950 0 
L 2422 1988 
L 2294 2553 
L 1622 0 
L 1034 0 
z
" transform="scale(0.015625)"/>
        <path id="ArialMT-74" d="M 1650 503 
L 1731 6 
Q 1494 -44 1306 -44 
Q 1000 -44 831 53 
Q 663 150 594 308 
Q 525 466 525 972 
L 525 2881 
L 113 2881 
L 113 3319 
L 525 3319 
L 525 4141 
L 1084 4478 
L 1084 3319 
L 1650 3319 
L 1650 2881 
L 1084 2881 
L 1084 941 
Q 1084 700 1114 631 
Q 1144 563 1211 522 
Q 1278 481 1403 481 
Q 1497 481 1650 503 
z
" transform="scale(0.015625)"/>
       </defs>
       <use xlink:href="#ArialMT-54"/>
       <use xlink:href="#ArialMT-50" transform="translate(61.083984 0)"/>
       <use xlink:href="#ArialMT-35" transform="translate(127.783203 0)"/>
       <use xlink:href="#ArialMT-33" transform="translate(183.398438 0)"/>
       <use xlink:href="#ArialMT-2d" transform="translate(239.013672 0)"/>
       <use xlink:href="#ArialMT-77" transform="translate(272.314453 0)"/>
       <use xlink:href="#ArialMT-74" transform="translate(344.53125 0)"/>
      </g>
     </g>
    </g>
    <g id="xtick_2">
     <g id="text_2">
      <!-- MSS/MSI-L -->
      <g style="fill: #262626" transform="translate(236.082175 398.502608) scale(0.1144 -0.1144)">
       <use xlink:href="#ArialMT-4d"/>
       <use xlink:href="#ArialMT-53" transform="translate(83.300781 0)"/>
       <use xlink:href="#ArialMT-53" transform="translate(150 0)"/>
       <use xlink:href="#ArialMT-2f" transform="translate(216.699219 0)"/>
       <use xlink:href="#ArialMT-4d" transform="translate(244.482422 0)"/>
       <use xlink:href="#ArialMT-53" transform="translate(327.783203 0)"/>
       <use xlink:href="#ArialMT-49" transform="translate(394.482422 0)"/>
       <use xlink:href="#ArialMT-2d" transform="translate(422.265625 0)"/>
       <use xlink:href="#ArialMT-4c" transform="translate(455.566406 0)"/>
      </g>
      <!-- TP53-mut -->
      <g style="fill: #262626" transform="translate(240.2113 410.602553) scale(0.1144 -0.1144)">
       <defs>
        <path id="ArialMT-6d" d="M 422 0 
L 422 3319 
L 925 3319 
L 925 2853 
Q 1081 3097 1340 3245 
Q 1600 3394 1931 3394 
Q 2300 3394 2536 3241 
Q 2772 3088 2869 2813 
Q 3263 3394 3894 3394 
Q 4388 3394 4653 3120 
Q 4919 2847 4919 2278 
L 4919 0 
L 4359 0 
L 4359 2091 
Q 4359 2428 4304 2576 
Q 4250 2725 4106 2815 
Q 3963 2906 3769 2906 
Q 3419 2906 3187 2673 
Q 2956 2441 2956 1928 
L 2956 0 
L 2394 0 
L 2394 2156 
Q 2394 2531 2256 2718 
Q 2119 2906 1806 2906 
Q 1569 2906 1367 2781 
Q 1166 2656 1075 2415 
Q 984 2175 984 1722 
L 984 0 
L 422 0 
z
" transform="scale(0.015625)"/>
        <path id="ArialMT-75" d="M 2597 0 
L 2597 488 
Q 2209 -75 1544 -75 
Q 1250 -75 995 37 
Q 741 150 617 320 
Q 494 491 444 738 
Q 409 903 409 1263 
L 409 3319 
L 972 3319 
L 972 1478 
Q 972 1038 1006 884 
Q 1059 663 1231 536 
Q 1403 409 1656 409 
Q 1909 409 2131 539 
Q 2353 669 2445 892 
Q 2538 1116 2538 1541 
L 2538 3319 
L 3100 3319 
L 3100 0 
L 2597 0 
z
" transform="scale(0.015625)"/>
       </defs>
       <use xlink:href="#ArialMT-54"/>
       <use xlink:href="#ArialMT-50" transform="translate(61.083984 0)"/>
       <use xlink:href="#ArialMT-35" transform="translate(127.783203 0)"/>
       <use xlink:href="#ArialMT-33" transform="translate(183.398438 0)"/>
       <use xlink:href="#ArialMT-2d" transform="translate(239.013672 0)"/>
       <use xlink:href="#ArialMT-6d" transform="translate(272.314453 0)"/>
       <use xlink:href="#ArialMT-75" transform="translate(355.615234 0)"/>
       <use xlink:href="#ArialMT-74" transform="translate(411.230469 0)"/>
      </g>
     </g>
    </g>
    <g id="xtick_3">
     <g id="text_3">
      <!-- MSI-H -->
      <g style="fill: #262626" transform="translate(394.583362 398.502608) scale(0.1144 -0.1144)">
       <defs>
        <path id="ArialMT-48" d="M 513 0 
L 513 4581 
L 1119 4581 
L 1119 2700 
L 3500 2700 
L 3500 4581 
L 4106 4581 
L 4106 0 
L 3500 0 
L 3500 2159 
L 1119 2159 
L 1119 0 
L 513 0 
z
" transform="scale(0.015625)"/>
       </defs>
       <use xlink:href="#ArialMT-4d"/>
       <use xlink:href="#ArialMT-53" transform="translate(83.300781 0)"/>
       <use xlink:href="#ArialMT-49" transform="translate(150 0)"/>
       <use xlink:href="#ArialMT-2d" transform="translate(177.783203 0)"/>
       <use xlink:href="#ArialMT-48" transform="translate(211.083984 0)"/>
      </g>
      <!-- TP53-wt -->
      <g style="fill: #262626" transform="translate(389.492562 410.602553) scale(0.1144 -0.1144)">
       <use xlink:href="#ArialMT-54"/>
       <use xlink:href="#ArialMT-50" transform="translate(61.083984 0)"/>
       <use xlink:href="#ArialMT-35" transform="translate(127.783203 0)"/>
       <use xlink:href="#ArialMT-33" transform="translate(183.398438 0)"/>
       <use xlink:href="#ArialMT-2d" transform="translate(239.013672 0)"/>
       <use xlink:href="#ArialMT-77" transform="translate(272.314453 0)"/>
       <use xlink:href="#ArialMT-74" transform="translate(344.53125 0)"/>
      </g>
     </g>
    </g>
    <g id="xtick_4">
     <g id="text_4">
      <!-- MSI-H -->
      <g style="fill: #262626" transform="translate(540.0501 398.502608) scale(0.1144 -0.1144)">
       <use xlink:href="#ArialMT-4d"/>
       <use xlink:href="#ArialMT-53" transform="translate(83.300781 0)"/>
       <use xlink:href="#ArialMT-49" transform="translate(150 0)"/>
       <use xlink:href="#ArialMT-2d" transform="translate(177.783203 0)"/>
       <use xlink:href="#ArialMT-48" transform="translate(211.083984 0)"/>
      </g>
      <!-- TP53-mut -->
      <g style="fill: #262626" transform="translate(531.144775 410.602553) scale(0.1144 -0.1144)">
       <use xlink:href="#ArialMT-54"/>
       <use xlink:href="#ArialMT-50" transform="translate(61.083984 0)"/>
       <use xlink:href="#ArialMT-35" transform="translate(127.783203 0)"/>
       <use xlink:href="#ArialMT-33" transform="translate(183.398438 0)"/>
       <use xlink:href="#ArialMT-2d" transform="translate(239.013672 0)"/>
       <use xlink:href="#ArialMT-6d" transform="translate(272.314453 0)"/>
       <use xlink:href="#ArialMT-75" transform="translate(355.615234 0)"/>
       <use xlink:href="#ArialMT-74" transform="translate(411.230469 0)"/>
      </g>
     </g>
    </g>
   </g>
   <g id="matplotlib.axis_2">
    <g id="ytick_1">
     <g id="line2d_1">
      <path d="M 47.1211 317.553936 
L 628.98805 317.553936 
" clip-path="url(#pabe8c18559)" style="fill: none; stroke: #cccccc; stroke-width: 0.8; stroke-linecap: round"/>
     </g>
     <g id="text_5">
      <!-- 0.2 -->
      <g style="fill: #262626" transform="translate(22.9195 321.648205) scale(0.1144 -0.1144)">
       <defs>
        <path id="ArialMT-30" d="M 266 2259 
Q 266 3072 433 3567 
Q 600 4063 929 4331 
Q 1259 4600 1759 4600 
Q 2128 4600 2406 4451 
Q 2684 4303 2865 4023 
Q 3047 3744 3150 3342 
Q 3253 2941 3253 2259 
Q 3253 1453 3087 958 
Q 2922 463 2592 192 
Q 2263 -78 1759 -78 
Q 1097 -78 719 397 
Q 266 969 266 2259 
z
M 844 2259 
Q 844 1131 1108 757 
Q 1372 384 1759 384 
Q 2147 384 2411 759 
Q 2675 1134 2675 2259 
Q 2675 3391 2411 3762 
Q 2147 4134 1753 4134 
Q 1366 4134 1134 3806 
Q 844 3388 844 2259 
z
" transform="scale(0.015625)"/>
        <path id="ArialMT-2e" d="M 581 0 
L 581 641 
L 1222 641 
L 1222 0 
L 581 0 
z
" transform="scale(0.015625)"/>
        <path id="ArialMT-32" d="M 3222 541 
L 3222 0 
L 194 0 
Q 188 203 259 391 
Q 375 700 629 1000 
Q 884 1300 1366 1694 
Q 2113 2306 2375 2664 
Q 2638 3022 2638 3341 
Q 2638 3675 2398 3904 
Q 2159 4134 1775 4134 
Q 1369 4134 1125 3890 
Q 881 3647 878 3216 
L 300 3275 
Q 359 3922 746 4261 
Q 1134 4600 1788 4600 
Q 2447 4600 2831 4234 
Q 3216 3869 3216 3328 
Q 3216 3053 3103 2787 
Q 2991 2522 2730 2228 
Q 2469 1934 1863 1422 
Q 1356 997 1212 845 
Q 1069 694 975 541 
L 3222 541 
z
" transform="scale(0.015625)"/>
       </defs>
       <use xlink:href="#ArialMT-30"/>
       <use xlink:href="#ArialMT-2e" transform="translate(55.615234 0)"/>
       <use xlink:href="#ArialMT-32" transform="translate(83.398438 0)"/>
      </g>
     </g>
    </g>
    <g id="ytick_2">
     <g id="line2d_2">
      <path d="M 47.1211 247.286663 
L 628.98805 247.286663 
" clip-path="url(#pabe8c18559)" style="fill: none; stroke: #cccccc; stroke-width: 0.8; stroke-linecap: round"/>
     </g>
     <g id="text_6">
      <!-- 0.4 -->
      <g style="fill: #262626" transform="translate(22.9195 251.380931) scale(0.1144 -0.1144)">
       <defs>
        <path id="ArialMT-34" d="M 2069 0 
L 2069 1097 
L 81 1097 
L 81 1613 
L 2172 4581 
L 2631 4581 
L 2631 1613 
L 3250 1613 
L 3250 1097 
L 2631 1097 
L 2631 0 
L 2069 0 
z
M 2069 1613 
L 2069 3678 
L 634 1613 
L 2069 1613 
z
" transform="scale(0.015625)"/>
       </defs>
       <use xlink:href="#ArialMT-30"/>
       <use xlink:href="#ArialMT-2e" transform="translate(55.615234 0)"/>
       <use xlink:href="#ArialMT-34" transform="translate(83.398438 0)"/>
      </g>
     </g>
    </g>
    <g id="ytick_3">
     <g id="line2d_3">
      <path d="M 47.1211 177.019389 
L 628.98805 177.019389 
" clip-path="url(#pabe8c18559)" style="fill: none; stroke: #cccccc; stroke-width: 0.8; stroke-linecap: round"/>
     </g>
     <g id="text_7">
      <!-- 0.6 -->
      <g style="fill: #262626" transform="translate(22.9195 181.113658) scale(0.1144 -0.1144)">
       <defs>
        <path id="ArialMT-36" d="M 3184 3459 
L 2625 3416 
Q 2550 3747 2413 3897 
Q 2184 4138 1850 4138 
Q 1581 4138 1378 3988 
Q 1113 3794 959 3422 
Q 806 3050 800 2363 
Q 1003 2672 1297 2822 
Q 1591 2972 1913 2972 
Q 2475 2972 2870 2558 
Q 3266 2144 3266 1488 
Q 3266 1056 3080 686 
Q 2894 316 2569 119 
Q 2244 -78 1831 -78 
Q 1128 -78 684 439 
Q 241 956 241 2144 
Q 241 3472 731 4075 
Q 1159 4600 1884 4600 
Q 2425 4600 2770 4297 
Q 3116 3994 3184 3459 
z
M 888 1484 
Q 888 1194 1011 928 
Q 1134 663 1356 523 
Q 1578 384 1822 384 
Q 2178 384 2434 671 
Q 2691 959 2691 1453 
Q 2691 1928 2437 2201 
Q 2184 2475 1800 2475 
Q 1419 2475 1153 2201 
Q 888 1928 888 1484 
z
" transform="scale(0.015625)"/>
       </defs>
       <use xlink:href="#ArialMT-30"/>
       <use xlink:href="#ArialMT-2e" transform="translate(55.615234 0)"/>
       <use xlink:href="#ArialMT-36" transform="translate(83.398438 0)"/>
      </g>
     </g>
    </g>
    <g id="ytick_4">
     <g id="line2d_4">
      <path d="M 47.1211 106.752116 
L 628.98805 106.752116 
" clip-path="url(#pabe8c18559)" style="fill: none; stroke: #cccccc; stroke-width: 0.8; stroke-linecap: round"/>
     </g>
     <g id="text_8">
      <!-- 0.8 -->
      <g style="fill: #262626" transform="translate(22.9195 110.846385) scale(0.1144 -0.1144)">
       <defs>
        <path id="ArialMT-38" d="M 1131 2484 
Q 781 2613 612 2850 
Q 444 3088 444 3419 
Q 444 3919 803 4259 
Q 1163 4600 1759 4600 
Q 2359 4600 2725 4251 
Q 3091 3903 3091 3403 
Q 3091 3084 2923 2848 
Q 2756 2613 2416 2484 
Q 2838 2347 3058 2040 
Q 3278 1734 3278 1309 
Q 3278 722 2862 322 
Q 2447 -78 1769 -78 
Q 1091 -78 675 323 
Q 259 725 259 1325 
Q 259 1772 486 2073 
Q 713 2375 1131 2484 
z
M 1019 3438 
Q 1019 3113 1228 2906 
Q 1438 2700 1772 2700 
Q 2097 2700 2305 2904 
Q 2513 3109 2513 3406 
Q 2513 3716 2298 3927 
Q 2084 4138 1766 4138 
Q 1444 4138 1231 3931 
Q 1019 3725 1019 3438 
z
M 838 1322 
Q 838 1081 952 856 
Q 1066 631 1291 507 
Q 1516 384 1775 384 
Q 2178 384 2440 643 
Q 2703 903 2703 1303 
Q 2703 1709 2433 1975 
Q 2163 2241 1756 2241 
Q 1359 2241 1098 1978 
Q 838 1716 838 1322 
z
" transform="scale(0.015625)"/>
       </defs>
       <use xlink:href="#ArialMT-30"/>
       <use xlink:href="#ArialMT-2e" transform="translate(55.615234 0)"/>
       <use xlink:href="#ArialMT-38" transform="translate(83.398438 0)"/>
      </g>
     </g>
    </g>
    <g id="ytick_5">
     <g id="line2d_5">
      <path d="M 47.1211 36.484843 
L 628.98805 36.484843 
" clip-path="url(#pabe8c18559)" style="fill: none; stroke: #cccccc; stroke-width: 0.8; stroke-linecap: round"/>
     </g>
     <g id="text_9">
      <!-- 1.0 -->
      <g style="fill: #262626" transform="translate(22.9195 40.579112) scale(0.1144 -0.1144)">
       <defs>
        <path id="ArialMT-31" d="M 2384 0 
L 1822 0 
L 1822 3584 
Q 1619 3391 1289 3197 
Q 959 3003 697 2906 
L 697 3450 
Q 1169 3672 1522 3987 
Q 1875 4303 2022 4600 
L 2384 4600 
L 2384 0 
z
" transform="scale(0.015625)"/>
       </defs>
       <use xlink:href="#ArialMT-31"/>
       <use xlink:href="#ArialMT-2e" transform="translate(55.615234 0)"/>
       <use xlink:href="#ArialMT-30" transform="translate(83.398438 0)"/>
      </g>
     </g>
    </g>
    <g id="text_10">
     <!-- tGJS (rank-normalized within COADREAD) -->
     <g style="fill: #262626" transform="translate(16.29285 328.19717) rotate(-90) scale(0.1248 -0.1248)">
      <defs>
       <path id="ArialMT-47" d="M 2638 1797 
L 2638 2334 
L 4578 2338 
L 4578 638 
Q 4131 281 3656 101 
Q 3181 -78 2681 -78 
Q 2006 -78 1454 211 
Q 903 500 622 1047 
Q 341 1594 341 2269 
Q 341 2938 620 3517 
Q 900 4097 1425 4378 
Q 1950 4659 2634 4659 
Q 3131 4659 3532 4498 
Q 3934 4338 4162 4050 
Q 4391 3763 4509 3300 
L 3963 3150 
Q 3859 3500 3706 3700 
Q 3553 3900 3268 4020 
Q 2984 4141 2638 4141 
Q 2222 4141 1919 4014 
Q 1616 3888 1430 3681 
Q 1244 3475 1141 3228 
Q 966 2803 966 2306 
Q 966 1694 1177 1281 
Q 1388 869 1791 669 
Q 2194 469 2647 469 
Q 3041 469 3416 620 
Q 3791 772 3984 944 
L 3984 1797 
L 2638 1797 
z
" transform="scale(0.015625)"/>
       <path id="ArialMT-4a" d="M 184 1300 
L 731 1375 
Q 753 850 928 656 
Q 1103 463 1413 463 
Q 1641 463 1806 567 
Q 1972 672 2034 851 
Q 2097 1031 2097 1425 
L 2097 4581 
L 2703 4581 
L 2703 1459 
Q 2703 884 2564 568 
Q 2425 253 2123 87 
Q 1822 -78 1416 -78 
Q 813 -78 492 269 
Q 172 616 184 1300 
z
" transform="scale(0.015625)"/>
       <path id="ArialMT-20" transform="scale(0.015625)"/>
       <path id="ArialMT-28" d="M 1497 -1347 
Q 1031 -759 709 28 
Q 388 816 388 1659 
Q 388 2403 628 3084 
Q 909 3875 1497 4659 
L 1900 4659 
Q 1522 4009 1400 3731 
Q 1209 3300 1100 2831 
Q 966 2247 966 1656 
Q 966 153 1900 -1347 
L 1497 -1347 
z
" transform="scale(0.015625)"/>
       <path id="ArialMT-72" d="M 416 0 
L 416 3319 
L 922 3319 
L 922 2816 
Q 1116 3169 1280 3281 
Q 1444 3394 1641 3394 
Q 1925 3394 2219 3213 
L 2025 2691 
Q 1819 2813 1613 2813 
Q 1428 2813 1281 2702 
Q 1134 2591 1072 2394 
Q 978 2094 978 1738 
L 978 0 
L 416 0 
z
" transform="scale(0.015625)"/>
       <path id="ArialMT-61" d="M 2588 409 
Q 2275 144 1986 34 
Q 1697 -75 1366 -75 
Q 819 -75 525 192 
Q 231 459 231 875 
Q 231 1119 342 1320 
Q 453 1522 633 1644 
Q 813 1766 1038 1828 
Q 1203 1872 1538 1913 
Q 2219 1994 2541 2106 
Q 2544 2222 2544 2253 
Q 2544 2597 2384 2738 
Q 2169 2928 1744 2928 
Q 1347 2928 1158 2789 
Q 969 2650 878 2297 
L 328 2372 
Q 403 2725 575 2942 
Q 747 3159 1072 3276 
Q 1397 3394 1825 3394 
Q 2250 3394 2515 3294 
Q 2781 3194 2906 3042 
Q 3031 2891 3081 2659 
Q 3109 2516 3109 2141 
L 3109 1391 
Q 3109 606 3145 398 
Q 3181 191 3288 0 
L 2700 0 
Q 2613 175 2588 409 
z
M 2541 1666 
Q 2234 1541 1622 1453 
Q 1275 1403 1131 1340 
Q 988 1278 909 1158 
Q 831 1038 831 891 
Q 831 666 1001 516 
Q 1172 366 1500 366 
Q 1825 366 2078 508 
Q 2331 650 2450 897 
Q 2541 1088 2541 1459 
L 2541 1666 
z
" transform="scale(0.015625)"/>
       <path id="ArialMT-6e" d="M 422 0 
L 422 3319 
L 928 3319 
L 928 2847 
Q 1294 3394 1984 3394 
Q 2284 3394 2536 3286 
Q 2788 3178 2913 3003 
Q 3038 2828 3088 2588 
Q 3119 2431 3119 2041 
L 3119 0 
L 2556 0 
L 2556 2019 
Q 2556 2363 2490 2533 
Q 2425 2703 2258 2804 
Q 2091 2906 1866 2906 
Q 1506 2906 1245 2678 
Q 984 2450 984 1813 
L 984 0 
L 422 0 
z
" transform="scale(0.015625)"/>
       <path id="ArialMT-6b" d="M 425 0 
L 425 4581 
L 988 4581 
L 988 1969 
L 2319 3319 
L 3047 3319 
L 1778 2088 
L 3175 0 
L 2481 0 
L 1384 1697 
L 988 1316 
L 988 0 
L 425 0 
z
" transform="scale(0.015625)"/>
       <path id="ArialMT-6f" d="M 213 1659 
Q 213 2581 725 3025 
Q 1153 3394 1769 3394 
Q 2453 3394 2887 2945 
Q 3322 2497 3322 1706 
Q 3322 1066 3130 698 
Q 2938 331 2570 128 
Q 2203 -75 1769 -75 
Q 1072 -75 642 372 
Q 213 819 213 1659 
z
M 791 1659 
Q 791 1022 1069 705 
Q 1347 388 1769 388 
Q 2188 388 2466 706 
Q 2744 1025 2744 1678 
Q 2744 2294 2464 2611 
Q 2184 2928 1769 2928 
Q 1347 2928 1069 2612 
Q 791 2297 791 1659 
z
" transform="scale(0.015625)"/>
       <path id="ArialMT-6c" d="M 409 0 
L 409 4581 
L 972 4581 
L 972 0 
L 409 0 
z
" transform="scale(0.015625)"/>
       <path id="ArialMT-69" d="M 425 3934 
L 425 4581 
L 988 4581 
L 988 3934 
L 425 3934 
z
M 425 0 
L 425 3319 
L 988 3319 
L 988 0 
L 425 0 
z
" transform="scale(0.015625)"/>
       <path id="ArialMT-7a" d="M 125 0 
L 125 456 
L 2238 2881 
Q 1878 2863 1603 2863 
L 250 2863 
L 250 3319 
L 2963 3319 
L 2963 2947 
L 1166 841 
L 819 456 
Q 1197 484 1528 484 
L 3063 484 
L 3063 0 
L 125 0 
z
" transform="scale(0.015625)"/>
       <path id="ArialMT-65" d="M 2694 1069 
L 3275 997 
Q 3138 488 2766 206 
Q 2394 -75 1816 -75 
Q 1088 -75 661 373 
Q 234 822 234 1631 
Q 234 2469 665 2931 
Q 1097 3394 1784 3394 
Q 2450 3394 2872 2941 
Q 3294 2488 3294 1666 
Q 3294 1616 3291 1516 
L 816 1516 
Q 847 969 1125 678 
Q 1403 388 1819 388 
Q 2128 388 2347 550 
Q 2566 713 2694 1069 
z
M 847 1978 
L 2700 1978 
Q 2663 2397 2488 2606 
Q 2219 2931 1791 2931 
Q 1403 2931 1139 2672 
Q 875 2413 847 1978 
z
" transform="scale(0.015625)"/>
       <path id="ArialMT-64" d="M 2575 0 
L 2575 419 
Q 2259 -75 1647 -75 
Q 1250 -75 917 144 
Q 584 363 401 755 
Q 219 1147 219 1656 
Q 219 2153 384 2558 
Q 550 2963 881 3178 
Q 1213 3394 1622 3394 
Q 1922 3394 2156 3267 
Q 2391 3141 2538 2938 
L 2538 4581 
L 3097 4581 
L 3097 0 
L 2575 0 
z
M 797 1656 
Q 797 1019 1065 703 
Q 1334 388 1700 388 
Q 2069 388 2326 689 
Q 2584 991 2584 1609 
Q 2584 2291 2321 2609 
Q 2059 2928 1675 2928 
Q 1300 2928 1048 2622 
Q 797 2316 797 1656 
z
" transform="scale(0.015625)"/>
       <path id="ArialMT-68" d="M 422 0 
L 422 4581 
L 984 4581 
L 984 2938 
Q 1378 3394 1978 3394 
Q 2347 3394 2619 3248 
Q 2891 3103 3008 2847 
Q 3125 2591 3125 2103 
L 3125 0 
L 2563 0 
L 2563 2103 
Q 2563 2525 2380 2717 
Q 2197 2909 1863 2909 
Q 1613 2909 1392 2779 
Q 1172 2650 1078 2428 
Q 984 2206 984 1816 
L 984 0 
L 422 0 
z
" transform="scale(0.015625)"/>
       <path id="ArialMT-43" d="M 3763 1606 
L 4369 1453 
Q 4178 706 3683 314 
Q 3188 -78 2472 -78 
Q 1731 -78 1267 223 
Q 803 525 561 1097 
Q 319 1669 319 2325 
Q 319 3041 592 3573 
Q 866 4106 1370 4382 
Q 1875 4659 2481 4659 
Q 3169 4659 3637 4309 
Q 4106 3959 4291 3325 
L 3694 3184 
Q 3534 3684 3231 3912 
Q 2928 4141 2469 4141 
Q 1941 4141 1586 3887 
Q 1231 3634 1087 3207 
Q 944 2781 944 2328 
Q 944 1744 1114 1308 
Q 1284 872 1643 656 
Q 2003 441 2422 441 
Q 2931 441 3284 734 
Q 3638 1028 3763 1606 
z
" transform="scale(0.015625)"/>
       <path id="ArialMT-4f" d="M 309 2231 
Q 309 3372 921 4017 
Q 1534 4663 2503 4663 
Q 3138 4663 3647 4359 
Q 4156 4056 4423 3514 
Q 4691 2972 4691 2284 
Q 4691 1588 4409 1038 
Q 4128 488 3612 205 
Q 3097 -78 2500 -78 
Q 1853 -78 1343 234 
Q 834 547 571 1087 
Q 309 1628 309 2231 
z
M 934 2222 
Q 934 1394 1379 917 
Q 1825 441 2497 441 
Q 3181 441 3623 922 
Q 4066 1403 4066 2288 
Q 4066 2847 3877 3264 
Q 3688 3681 3323 3911 
Q 2959 4141 2506 4141 
Q 1863 4141 1398 3698 
Q 934 3256 934 2222 
z
" transform="scale(0.015625)"/>
       <path id="ArialMT-41" d="M -9 0 
L 1750 4581 
L 2403 4581 
L 4278 0 
L 3588 0 
L 3053 1388 
L 1138 1388 
L 634 0 
L -9 0 
z
M 1313 1881 
L 2866 1881 
L 2388 3150 
Q 2169 3728 2063 4100 
Q 1975 3659 1816 3225 
L 1313 1881 
z
" transform="scale(0.015625)"/>
       <path id="ArialMT-44" d="M 494 0 
L 494 4581 
L 2072 4581 
Q 2606 4581 2888 4516 
Q 3281 4425 3559 4188 
Q 3922 3881 4101 3404 
Q 4281 2928 4281 2316 
Q 4281 1794 4159 1391 
Q 4038 988 3847 723 
Q 3656 459 3429 307 
Q 3203 156 2883 78 
Q 2563 0 2147 0 
L 494 0 
z
M 1100 541 
L 2078 541 
Q 2531 541 2789 625 
Q 3047 709 3200 863 
Q 3416 1078 3536 1442 
Q 3656 1806 3656 2325 
Q 3656 3044 3420 3430 
Q 3184 3816 2847 3947 
Q 2603 4041 2063 4041 
L 1100 4041 
L 1100 541 
z
" transform="scale(0.015625)"/>
       <path id="ArialMT-52" d="M 503 0 
L 503 4581 
L 2534 4581 
Q 3147 4581 3465 4457 
Q 3784 4334 3975 4021 
Q 4166 3709 4166 3331 
Q 4166 2844 3850 2509 
Q 3534 2175 2875 2084 
Q 3116 1969 3241 1856 
Q 3506 1613 3744 1247 
L 4541 0 
L 3778 0 
L 3172 953 
Q 2906 1366 2734 1584 
Q 2563 1803 2427 1890 
Q 2291 1978 2150 2013 
Q 2047 2034 1813 2034 
L 1109 2034 
L 1109 0 
L 503 0 
z
M 1109 2559 
L 2413 2559 
Q 2828 2559 3062 2645 
Q 3297 2731 3419 2920 
Q 3541 3109 3541 3331 
Q 3541 3656 3305 3865 
Q 3069 4075 2559 4075 
L 1109 4075 
L 1109 2559 
z
" transform="scale(0.015625)"/>
       <path id="ArialMT-45" d="M 506 0 
L 506 4581 
L 3819 4581 
L 3819 4041 
L 1113 4041 
L 1113 2638 
L 3647 2638 
L 3647 2100 
L 1113 2100 
L 1113 541 
L 3925 541 
L 3925 0 
L 506 0 
z
" transform="scale(0.015625)"/>
       <path id="ArialMT-29" d="M 791 -1347 
L 388 -1347 
Q 1322 153 1322 1656 
Q 1322 2244 1188 2822 
Q 1081 3291 891 3722 
Q 769 4003 388 4659 
L 791 4659 
Q 1378 3875 1659 3084 
Q 1900 2403 1900 1659 
Q 1900 816 1576 28 
Q 1253 -759 791 -1347 
z
" transform="scale(0.015625)"/>
      </defs>
      <use xlink:href="#ArialMT-74"/>
      <use xlink:href="#ArialMT-47" transform="translate(27.783203 0)"/>
      <use xlink:href="#ArialMT-4a" transform="translate(105.566406 0)"/>
      <use xlink:href="#ArialMT-53" transform="translate(155.566406 0)"/>
      <use xlink:href="#ArialMT-20" transform="translate(222.265625 0)"/>
      <use xlink:href="#ArialMT-28" transform="translate(250.048828 0)"/>
      <use xlink:href="#ArialMT-72" transform="translate(283.349609 0)"/>
      <use xlink:href="#ArialMT-61" transform="translate(316.650391 0)"/>
      <use xlink:href="#ArialMT-6e" transform="translate(372.265625 0)"/>
      <use xlink:href="#ArialMT-6b" transform="translate(427.880859 0)"/>
      <use xlink:href="#ArialMT-2d" transform="translate(477.880859 0)"/>
      <use xlink:href="#ArialMT-6e" transform="translate(511.181641 0)"/>
      <use xlink:href="#ArialMT-6f" transform="translate(566.796875 0)"/>
      <use xlink:href="#ArialMT-72" transform="translate(622.412109 0)"/>
      <use xlink:href="#ArialMT-6d" transform="translate(655.712891 0)"/>
      <use xlink:href="#ArialMT-61" transform="translate(739.013672 0)"/>
      <use xlink:href="#ArialMT-6c" transform="translate(794.628906 0)"/>
      <use xlink:href="#ArialMT-69" transform="translate(816.845703 0)"/>
      <use xlink:href="#ArialMT-7a" transform="translate(839.0625 0)"/>
      <use xlink:href="#ArialMT-65" transform="translate(889.0625 0)"/>
      <use xlink:href="#ArialMT-64" transform="translate(944.677734 0)"/>
      <use xlink:href="#ArialMT-20" transform="translate(1000.292969 0)"/>
      <use xlink:href="#ArialMT-77" transform="translate(1028.076172 0)"/>
      <use xlink:href="#ArialMT-69" transform="translate(1100.292969 0)"/>
      <use xlink:href="#ArialMT-74" transform="translate(1122.509766 0)"/>
      <use xlink:href="#ArialMT-68" transform="translate(1150.292969 0)"/>
      <use xlink:href="#ArialMT-69" transform="translate(1205.908203 0)"/>
      <use xlink:href="#ArialMT-6e" transform="translate(1228.125 0)"/>
      <use xlink:href="#ArialMT-20" transform="translate(1283.740234 0)"/>
      <use xlink:href="#ArialMT-43" transform="translate(1311.523438 0)"/>
      <use xlink:href="#ArialMT-4f" transform="translate(1383.740234 0)"/>
      <use xlink:href="#ArialMT-41" transform="translate(1461.523438 0)"/>
      <use xlink:href="#ArialMT-44" transform="translate(1528.222656 0)"/>
      <use xlink:href="#ArialMT-52" transform="translate(1600.439453 0)"/>
      <use xlink:href="#ArialMT-45" transform="translate(1672.65625 0)"/>
      <use xlink:href="#ArialMT-41" transform="translate(1739.355469 0)"/>
      <use xlink:href="#ArialMT-44" transform="translate(1806.054688 0)"/>
      <use xlink:href="#ArialMT-29" transform="translate(1878.271484 0)"/>
     </g>
    </g>
   </g>
   <g id="FillBetweenPolyCollection_1">
    <defs>
     <path id="m7f5237b92f" d="M 122.336636 -79.97032 
L 117.372301 -79.97032 
L 117.037585 -82.884935 
L 116.6721 -85.79955 
L 116.265488 -88.714164 
L 115.804343 -91.628779 
L 115.273012 -94.543394 
L 114.654839 -97.458009 
L 113.933735 -100.372623 
L 113.09585 -103.287238 
L 112.131119 -106.201853 
L 111.034439 -109.116468 
L 109.806297 -112.031082 
L 108.452777 -114.945697 
L 106.984989 -117.860312 
L 105.418077 -120.774927 
L 103.770056 -123.689541 
L 102.060743 -126.604156 
L 100.310975 -129.518771 
L 98.542238 -132.433386 
L 96.776633 -135.348 
L 95.036983 -138.262615 
L 93.34679 -141.17723 
L 91.729733 -144.091845 
L 90.208468 -147.006459 
L 88.802682 -149.921074 
L 87.526548 -152.835689 
L 86.385965 -155.750304 
L 85.376121 -158.664918 
L 84.479954 -161.579533 
L 83.668039 -164.494148 
L 82.900238 -167.408763 
L 82.129128 -170.323377 
L 81.304959 -173.237992 
L 80.381535 -176.152607 
L 79.322236 -179.067222 
L 78.105267 -181.981836 
L 76.727306 -184.896451 
L 75.204893 -187.811066 
L 73.573253 -190.725681 
L 71.882608 -193.640295 
L 70.192477 -196.55491 
L 68.564771 -199.469525 
L 67.056711 -202.38414 
L 65.714635 -205.298754 
L 64.569626 -208.213369 
L 63.635555 -211.127984 
L 62.909776 -214.042599 
L 62.376214 -216.957213 
L 62.010283 -219.871828 
L 61.784774 -222.786443 
L 61.675779 -225.701058 
L 61.667774 -228.615672 
L 61.757165 -231.530287 
L 61.953854 -234.444902 
L 62.280669 -237.359517 
L 62.77077 -240.274131 
L 63.463382 -243.188746 
L 64.398402 -246.103361 
L 65.610537 -249.017976 
L 67.123744 -251.93259 
L 68.946667 -254.847205 
L 71.069721 -257.76182 
L 73.464217 -260.676435 
L 76.083692 -263.591049 
L 78.867257 -266.505664 
L 81.744526 -269.420279 
L 84.641431 -272.334894 
L 87.486189 -275.249508 
L 90.214666 -278.164123 
L 92.774589 -281.078738 
L 95.12823 -283.993353 
L 97.253482 -286.907967 
L 99.143396 -289.822582 
L 100.804484 -292.737197 
L 102.254108 -295.651812 
L 103.517362 -298.566426 
L 104.623814 -301.481041 
L 105.604445 -304.395656 
L 106.489031 -307.310271 
L 107.304166 -310.224885 
L 108.071996 -313.1395 
L 108.809642 -316.054115 
L 109.529225 -318.96873 
L 110.238291 -321.883344 
L 110.940485 -324.797959 
L 111.636272 -327.712574 
L 112.323605 -330.627188 
L 112.998497 -333.541803 
L 113.655526 -336.456418 
L 114.288318 -339.371033 
L 114.890089 -342.285647 
L 115.454261 -345.200262 
L 115.975132 -348.114877 
L 116.448521 -351.029492 
L 116.872287 -353.944106 
L 117.246601 -356.858721 
L 117.573916 -359.773336 
L 117.858621 -362.687951 
L 118.106426 -365.602565 
L 118.323611 -368.51718 
L 121.385327 -368.51718 
L 121.385327 -368.51718 
L 121.602512 -365.602565 
L 121.850317 -362.687951 
L 122.135021 -359.773336 
L 122.462336 -356.858721 
L 122.83665 -353.944106 
L 123.260416 -351.029492 
L 123.733806 -348.114877 
L 124.254676 -345.200262 
L 124.818848 -342.285647 
L 125.420619 -339.371033 
L 126.053411 -336.456418 
L 126.71044 -333.541803 
L 127.385333 -330.627188 
L 128.072665 -327.712574 
L 128.768452 -324.797959 
L 129.470647 -321.883344 
L 130.179713 -318.96873 
L 130.899295 -316.054115 
L 131.636942 -313.1395 
L 132.404771 -310.224885 
L 133.219907 -307.310271 
L 134.104493 -304.395656 
L 135.085123 -301.481041 
L 136.191576 -298.566426 
L 137.454829 -295.651812 
L 138.904453 -292.737197 
L 140.565542 -289.822582 
L 142.455456 -286.907967 
L 144.580707 -283.993353 
L 146.934349 -281.078738 
L 149.494271 -278.164123 
L 152.222749 -275.249508 
L 155.067507 -272.334894 
L 157.964412 -269.420279 
L 160.84168 -266.505664 
L 163.625246 -263.591049 
L 166.24472 -260.676435 
L 168.639216 -257.76182 
L 170.76227 -254.847205 
L 172.585194 -251.93259 
L 174.098401 -249.017976 
L 175.310536 -246.103361 
L 176.245555 -243.188746 
L 176.938168 -240.274131 
L 177.428268 -237.359517 
L 177.755083 -234.444902 
L 177.951773 -231.530287 
L 178.041164 -228.615672 
L 178.033159 -225.701058 
L 177.924164 -222.786443 
L 177.698655 -219.871828 
L 177.332724 -216.957213 
L 176.799161 -214.042599 
L 176.073382 -211.127984 
L 175.139312 -208.213369 
L 173.994302 -205.298754 
L 172.652226 -202.38414 
L 171.144166 -199.469525 
L 169.516461 -196.55491 
L 167.82633 -193.640295 
L 166.135684 -190.725681 
L 164.504044 -187.811066 
L 162.981632 -184.896451 
L 161.603671 -181.981836 
L 160.386702 -179.067222 
L 159.327402 -176.152607 
L 158.403979 -173.237992 
L 157.579809 -170.323377 
L 156.8087 -167.408763 
L 156.040898 -164.494148 
L 155.228984 -161.579533 
L 154.332816 -158.664918 
L 153.322973 -155.750304 
L 152.18239 -152.835689 
L 150.906255 -149.921074 
L 149.500469 -147.006459 
L 147.979205 -144.091845 
L 146.362148 -141.17723 
L 144.671955 -138.262615 
L 142.932304 -135.348 
L 141.166699 -132.433386 
L 139.397963 -129.518771 
L 137.648195 -126.604156 
L 135.938881 -123.689541 
L 134.290861 -120.774927 
L 132.723948 -117.860312 
L 131.25616 -114.945697 
L 129.90264 -112.031082 
L 128.674498 -109.116468 
L 127.577818 -106.201853 
L 126.613088 -103.287238 
L 125.775203 -100.372623 
L 125.054099 -97.458009 
L 124.435926 -94.543394 
L 123.904594 -91.628779 
L 123.443449 -88.714164 
L 123.036837 -85.79955 
L 122.671352 -82.884935 
L 122.336636 -79.97032 
z
" style="stroke: #404040"/>
    </defs>
    <g clip-path="url(#pabe8c18559)">
     <use xlink:href="#m7f5237b92f" x="0" y="420.076253" style="fill: #3b93d9; stroke: #404040"/>
    </g>
   </g>
   <g id="FillBetweenPolyCollection_2">
    <defs>
     <path id="m169ff73cf7" d="M 269.804488 -77.477731 
L 260.837924 -77.477731 
L 260.259396 -80.181333 
L 259.677225 -82.884935 
L 259.096727 -85.588537 
L 258.520325 -88.292139 
L 257.947062 -90.995741 
L 257.372386 -93.699343 
L 256.788224 -96.402944 
L 256.183333 -99.106546 
L 255.543918 -101.810148 
L 254.854483 -104.51375 
L 254.098878 -107.217352 
L 253.261484 -109.920954 
L 252.328487 -112.624556 
L 251.289169 -115.328158 
L 250.137153 -118.03176 
L 248.871521 -120.735362 
L 247.497694 -123.438964 
L 246.027963 -126.142566 
L 244.481537 -128.846167 
L 242.883972 -131.549769 
L 241.265891 -134.253371 
L 239.660974 -136.956973 
L 238.103288 -139.660575 
L 236.624163 -142.364177 
L 235.24891 -145.067779 
L 233.993745 -147.771381 
L 232.863318 -150.474983 
L 231.849202 -153.178585 
L 230.929595 -155.882187 
L 230.070407 -158.585789 
L 229.227744 -161.28939 
L 228.351682 -163.992992 
L 227.391107 -166.696594 
L 226.299248 -169.400196 
L 225.039435 -172.103798 
L 223.590477 -174.8074 
L 221.950995 -177.511002 
L 220.142031 -180.214604 
L 218.207343 -182.918206 
L 216.211052 -185.621808 
L 214.232613 -188.32541 
L 212.359541 -191.029012 
L 210.678738 -193.732613 
L 209.26757 -196.436215 
L 208.186025 -199.139817 
L 207.471132 -201.843419 
L 207.134511 -204.547021 
L 207.163373 -207.250623 
L 207.524683 -209.954225 
L 208.171668 -212.657827 
L 209.051448 -215.361429 
L 210.112491 -218.065031 
L 211.310681 -220.768633 
L 212.61322 -223.472235 
L 214.000026 -226.175836 
L 215.462807 -228.879438 
L 217.002373 -231.58304 
L 218.624983 -234.286642 
L 220.338525 -236.990244 
L 222.149192 -239.693846 
L 224.059086 -242.397448 
L 226.064849 -245.10105 
L 228.15727 -247.804652 
L 230.321585 -250.508254 
L 232.538225 -253.211856 
L 234.783756 -255.915458 
L 237.031901 -258.619059 
L 239.254587 -261.322661 
L 241.423066 -264.026263 
L 243.509156 -266.729865 
L 245.486608 -269.433467 
L 247.332543 -272.137069 
L 249.028832 -274.840671 
L 250.563224 -277.544273 
L 251.930045 -280.247875 
L 253.130332 -282.951477 
L 254.171372 -285.655079 
L 255.065687 -288.35868 
L 255.829645 -291.062282 
L 256.481888 -293.765884 
L 257.041801 -296.469486 
L 257.528183 -299.173088 
L 257.958233 -301.87669 
L 258.346862 -304.580292 
L 258.706327 -307.283894 
L 259.046125 -309.987496 
L 259.373098 -312.691098 
L 259.691707 -315.3947 
L 260.004459 -318.098302 
L 260.312428 -320.801903 
L 260.615846 -323.505505 
L 260.91467 -326.209107 
L 261.209037 -328.912709 
L 261.49953 -331.616311 
L 261.787186 -334.319913 
L 262.073271 -337.023515 
L 262.358869 -339.727117 
L 262.644402 -342.430719 
L 262.929229 -345.134321 
L 267.713184 -345.134321 
L 267.713184 -345.134321 
L 267.998011 -342.430719 
L 268.283544 -339.727117 
L 268.569141 -337.023515 
L 268.855226 -334.319913 
L 269.142883 -331.616311 
L 269.433375 -328.912709 
L 269.727743 -326.209107 
L 270.026567 -323.505505 
L 270.329985 -320.801903 
L 270.637954 -318.098302 
L 270.950705 -315.3947 
L 271.269315 -312.691098 
L 271.596287 -309.987496 
L 271.936085 -307.283894 
L 272.295551 -304.580292 
L 272.684179 -301.87669 
L 273.114229 -299.173088 
L 273.600612 -296.469486 
L 274.160524 -293.765884 
L 274.812767 -291.062282 
L 275.576725 -288.35868 
L 276.471041 -285.655079 
L 277.512081 -282.951477 
L 278.712368 -280.247875 
L 280.079188 -277.544273 
L 281.61358 -274.840671 
L 283.30987 -272.137069 
L 285.155805 -269.433467 
L 287.133256 -266.729865 
L 289.219346 -264.026263 
L 291.387826 -261.322661 
L 293.610512 -258.619059 
L 295.858657 -255.915458 
L 298.104188 -253.211856 
L 300.320827 -250.508254 
L 302.485142 -247.804652 
L 304.577563 -245.10105 
L 306.583327 -242.397448 
L 308.49322 -239.693846 
L 310.303888 -236.990244 
L 312.017429 -234.286642 
L 313.640039 -231.58304 
L 315.179606 -228.879438 
L 316.642386 -226.175836 
L 318.029193 -223.472235 
L 319.331732 -220.768633 
L 320.529921 -218.065031 
L 321.590964 -215.361429 
L 322.470745 -212.657827 
L 323.117729 -209.954225 
L 323.479039 -207.250623 
L 323.507901 -204.547021 
L 323.171281 -201.843419 
L 322.456388 -199.139817 
L 321.374843 -196.436215 
L 319.963675 -193.732613 
L 318.282871 -191.029012 
L 316.4098 -188.32541 
L 314.43136 -185.621808 
L 312.435069 -182.918206 
L 310.500382 -180.214604 
L 308.691417 -177.511002 
L 307.051936 -174.8074 
L 305.602977 -172.103798 
L 304.343164 -169.400196 
L 303.251305 -166.696594 
L 302.29073 -163.992992 
L 301.414669 -161.28939 
L 300.572006 -158.585789 
L 299.712818 -155.882187 
L 298.793211 -153.178585 
L 297.779094 -150.474983 
L 296.648668 -147.771381 
L 295.393503 -145.067779 
L 294.01825 -142.364177 
L 292.539125 -139.660575 
L 290.981438 -136.956973 
L 289.376521 -134.253371 
L 287.758441 -131.549769 
L 286.160876 -128.846167 
L 284.61445 -126.142566 
L 283.144719 -123.438964 
L 281.770891 -120.735362 
L 280.505259 -118.03176 
L 279.353244 -115.328158 
L 278.313925 -112.624556 
L 277.380928 -109.920954 
L 276.543535 -107.217352 
L 275.78793 -104.51375 
L 275.098495 -101.810148 
L 274.459079 -99.106546 
L 273.854188 -96.402944 
L 273.270027 -93.699343 
L 272.695351 -90.995741 
L 272.122087 -88.292139 
L 271.545685 -85.588537 
L 270.965188 -82.884935 
L 270.383016 -80.181333 
L 269.804488 -77.477731 
z
" style="stroke: #404040"/>
    </defs>
    <g clip-path="url(#pabe8c18559)">
     <use xlink:href="#m169ff73cf7" x="0" y="420.076253" style="fill: #df9220; stroke: #404040"/>
    </g>
   </g>
   <g id="FillBetweenPolyCollection_3">
    <defs>
     <path id="m53a1ca19c8" d="M 415.500225 -70.890174 
L 406.075663 -70.890174 
L 405.787398 -73.433119 
L 405.507279 -75.976063 
L 405.234196 -78.519007 
L 404.96587 -81.061952 
L 404.698867 -83.604896 
L 404.428657 -86.147841 
L 404.149725 -88.690785 
L 403.855724 -91.23373 
L 403.539658 -93.776674 
L 403.1941 -96.319618 
L 402.811409 -98.862563 
L 402.383975 -101.405507 
L 401.90445 -103.948452 
L 401.365987 -106.491396 
L 400.762463 -109.03434 
L 400.088705 -111.577285 
L 399.340682 -114.120229 
L 398.515696 -116.663174 
L 397.612529 -119.206118 
L 396.631561 -121.749063 
L 395.574835 -124.292007 
L 394.446071 -126.834951 
L 393.250597 -129.377896 
L 391.995217 -131.92084 
L 390.68799 -134.463785 
L 389.337936 -137.006729 
L 387.954684 -139.549673 
L 386.548063 -142.092618 
L 385.127678 -144.635562 
L 383.702503 -147.178507 
L 382.280501 -149.721451 
L 380.868341 -152.264396 
L 379.471197 -154.80734 
L 378.092683 -157.350284 
L 376.734909 -159.893229 
L 375.398664 -162.436173 
L 374.083699 -164.979118 
L 372.789086 -167.522062 
L 371.513609 -170.065007 
L 370.256148 -172.607951 
L 369.016017 -175.150895 
L 367.79321 -177.69384 
L 366.588558 -180.236784 
L 365.403765 -182.779729 
L 364.241349 -185.322673 
L 363.104506 -187.865617 
L 361.996945 -190.408562 
L 360.922715 -192.951506 
L 359.886081 -195.494451 
L 358.891488 -198.037395 
L 357.943605 -200.58034 
L 357.047476 -203.123284 
L 356.208751 -205.666228 
L 355.433952 -208.209173 
L 354.730727 -210.752117 
L 354.108044 -213.295062 
L 353.576247 -215.838006 
L 353.146951 -218.38095 
L 352.832725 -220.923895 
L 352.646577 -223.466839 
L 352.601249 -226.009784 
L 352.708374 -228.552728 
L 352.977563 -231.095673 
L 353.41551 -233.638617 
L 354.025186 -236.181561 
L 354.805235 -238.724506 
L 355.749609 -241.26745 
L 356.847526 -243.810395 
L 358.083735 -246.353339 
L 359.43911 -248.896283 
L 360.891518 -251.439228 
L 362.416908 -253.982172 
L 363.990526 -256.525117 
L 365.588177 -259.068061 
L 367.187432 -261.611006 
L 368.768688 -264.15395 
L 370.316016 -266.696894 
L 371.817729 -269.239839 
L 373.266647 -271.782783 
L 374.660055 -274.325728 
L 375.999365 -276.868672 
L 377.289529 -279.411617 
L 378.538261 -281.954561 
L 379.755132 -284.497505 
L 380.950627 -287.04045 
L 382.135214 -289.583394 
L 383.318512 -292.126339 
L 384.508599 -294.669283 
L 385.711502 -297.212227 
L 386.930878 -299.755172 
L 388.167899 -302.298116 
L 389.421321 -304.841061 
L 390.687698 -307.384005 
L 391.961725 -309.92695 
L 393.236647 -312.469894 
L 394.504713 -315.012838 
L 395.75762 -317.555783 
L 396.986928 -320.098727 
L 398.184427 -322.641672 
L 423.391461 -322.641672 
L 423.391461 -322.641672 
L 424.588959 -320.098727 
L 425.818268 -317.555783 
L 427.071174 -315.012838 
L 428.33924 -312.469894 
L 429.614163 -309.92695 
L 430.888189 -307.384005 
L 432.154566 -304.841061 
L 433.407988 -302.298116 
L 434.64501 -299.755172 
L 435.864386 -297.212227 
L 437.067288 -294.669283 
L 438.257376 -292.126339 
L 439.440673 -289.583394 
L 440.62526 -287.04045 
L 441.820755 -284.497505 
L 443.037627 -281.954561 
L 444.286358 -279.411617 
L 445.576522 -276.868672 
L 446.915832 -274.325728 
L 448.30924 -271.782783 
L 449.758159 -269.239839 
L 451.259871 -266.696894 
L 452.807199 -264.15395 
L 454.388456 -261.611006 
L 455.98771 -259.068061 
L 457.585361 -256.525117 
L 459.158979 -253.982172 
L 460.684369 -251.439228 
L 462.136778 -248.896283 
L 463.492153 -246.353339 
L 464.728361 -243.810395 
L 465.826278 -241.26745 
L 466.770653 -238.724506 
L 467.550701 -236.181561 
L 468.160377 -233.638617 
L 468.598324 -231.095673 
L 468.867514 -228.552728 
L 468.974639 -226.009784 
L 468.929311 -223.466839 
L 468.743163 -220.923895 
L 468.428937 -218.38095 
L 467.99964 -215.838006 
L 467.467844 -213.295062 
L 466.84516 -210.752117 
L 466.141936 -208.209173 
L 465.367136 -205.666228 
L 464.528411 -203.123284 
L 463.632283 -200.58034 
L 462.684399 -198.037395 
L 461.689806 -195.494451 
L 460.653173 -192.951506 
L 459.578942 -190.408562 
L 458.471381 -187.865617 
L 457.334539 -185.322673 
L 456.172122 -182.779729 
L 454.987329 -180.236784 
L 453.782677 -177.69384 
L 452.559871 -175.150895 
L 451.319739 -172.607951 
L 450.062279 -170.065007 
L 448.786802 -167.522062 
L 447.492188 -164.979118 
L 446.177224 -162.436173 
L 444.840979 -159.893229 
L 443.483205 -157.350284 
L 442.104691 -154.80734 
L 440.707546 -152.264396 
L 439.295386 -149.721451 
L 437.873385 -147.178507 
L 436.448209 -144.635562 
L 435.027825 -142.092618 
L 433.621203 -139.549673 
L 432.237951 -137.006729 
L 430.887898 -134.463785 
L 429.58067 -131.92084 
L 428.32529 -129.377896 
L 427.129816 -126.834951 
L 426.001052 -124.292007 
L 424.944327 -121.749063 
L 423.963358 -119.206118 
L 423.060191 -116.663174 
L 422.235205 -114.120229 
L 421.487183 -111.577285 
L 420.813424 -109.03434 
L 420.209901 -106.491396 
L 419.671437 -103.948452 
L 419.191912 -101.405507 
L 418.764478 -98.862563 
L 418.381788 -96.319618 
L 418.036229 -93.776674 
L 417.720164 -91.23373 
L 417.426162 -88.690785 
L 417.14723 -86.147841 
L 416.87702 -83.604896 
L 416.610018 -81.061952 
L 416.341692 -78.519007 
L 416.068608 -75.976063 
L 415.788489 -73.433119 
L 415.500225 -70.890174 
z
" style="stroke: #404040"/>
    </defs>
    <g clip-path="url(#pabe8c18559)">
     <use xlink:href="#m53a1ca19c8" x="0" y="420.076253" style="fill: #58a35b; stroke: #404040"/>
    </g>
   </g>
   <g id="FillBetweenPolyCollection_4">
    <defs>
     <path id="m970bc83a4b" d="M 563.798094 -53.798135 
L 548.711268 -53.798135 
L 548.463372 -56.350671 
L 548.23899 -58.903207 
L 548.037117 -61.455743 
L 547.855603 -64.008278 
L 547.691099 -66.560814 
L 547.53904 -69.11335 
L 547.393667 -71.665886 
L 547.248086 -74.218422 
L 547.094363 -76.770958 
L 546.923671 -79.323494 
L 546.726468 -81.87603 
L 546.492712 -84.428566 
L 546.212107 -86.981102 
L 545.874382 -89.533638 
L 545.469574 -92.086173 
L 544.988332 -94.638709 
L 544.422213 -97.191245 
L 543.763969 -99.743781 
L 543.007807 -102.296317 
L 542.149617 -104.848853 
L 541.18716 -107.401389 
L 540.120193 -109.953925 
L 538.950542 -112.506461 
L 537.682102 -115.058997 
L 536.320774 -117.611533 
L 534.87433 -120.164068 
L 533.352212 -122.716604 
L 531.765275 -125.26914 
L 530.125484 -127.821676 
L 528.445563 -130.374212 
L 526.73864 -132.926748 
L 525.017865 -135.479284 
L 523.296061 -138.03182 
L 521.585381 -140.584356 
L 519.897024 -143.136892 
L 518.240998 -145.689428 
L 516.625955 -148.241963 
L 515.059098 -150.794499 
L 513.546167 -153.347035 
L 512.091498 -155.899571 
L 510.698163 -158.452107 
L 509.368161 -161.004643 
L 508.102669 -163.557179 
L 506.902323 -166.109715 
L 505.767515 -168.662251 
L 504.698693 -171.214787 
L 503.696641 -173.767323 
L 502.762724 -176.319858 
L 501.899077 -178.872394 
L 501.108742 -181.42493 
L 500.395722 -183.977466 
L 499.764971 -186.530002 
L 499.222302 -189.082538 
L 498.774222 -191.635074 
L 498.427714 -194.18761 
L 498.189951 -196.740146 
L 498.067986 -199.292682 
L 498.068403 -201.845218 
L 498.196971 -204.397754 
L 498.458307 -206.950289 
L 498.855555 -209.502825 
L 499.390116 -212.055361 
L 500.061425 -214.607897 
L 500.866793 -217.160433 
L 501.801321 -219.712969 
L 502.857893 -222.265505 
L 504.027245 -224.818041 
L 505.298112 -227.370577 
L 506.657449 -229.923113 
L 508.090722 -232.475649 
L 509.58225 -235.028184 
L 511.115602 -237.58072 
L 512.674014 -240.133256 
L 514.240834 -242.685792 
L 515.799968 -245.238328 
L 517.336301 -247.790864 
L 518.836107 -250.3434 
L 520.287393 -252.895936 
L 521.680203 -255.448472 
L 523.006843 -258.001008 
L 524.262028 -260.553544 
L 525.442949 -263.106079 
L 526.549252 -265.658615 
L 527.582928 -268.211151 
L 528.548125 -270.763687 
L 529.450891 -273.316223 
L 530.298848 -275.868759 
L 531.100822 -278.421295 
L 531.866437 -280.973831 
L 532.605703 -283.526367 
L 533.328594 -286.078903 
L 534.044652 -288.631439 
L 534.762625 -291.183974 
L 535.490152 -293.73651 
L 536.23351 -296.289046 
L 536.997428 -298.841582 
L 537.78497 -301.394118 
L 538.597497 -303.946654 
L 539.4347 -306.49919 
L 573.074663 -306.49919 
L 573.074663 -306.49919 
L 573.911866 -303.946654 
L 574.724393 -301.394118 
L 575.511935 -298.841582 
L 576.275852 -296.289046 
L 577.01921 -293.73651 
L 577.746738 -291.183974 
L 578.46471 -288.631439 
L 579.180768 -286.078903 
L 579.903659 -283.526367 
L 580.642925 -280.973831 
L 581.408541 -278.421295 
L 582.210514 -275.868759 
L 583.058471 -273.316223 
L 583.961238 -270.763687 
L 584.926435 -268.211151 
L 585.96011 -265.658615 
L 587.066413 -263.106079 
L 588.247335 -260.553544 
L 589.50252 -258.001008 
L 590.82916 -255.448472 
L 592.22197 -252.895936 
L 593.673256 -250.3434 
L 595.173061 -247.790864 
L 596.709395 -245.238328 
L 598.268528 -242.685792 
L 599.835349 -240.133256 
L 601.393761 -237.58072 
L 602.927112 -235.028184 
L 604.418641 -232.475649 
L 605.851914 -229.923113 
L 607.211251 -227.370577 
L 608.482117 -224.818041 
L 609.651469 -222.265505 
L 610.708042 -219.712969 
L 611.64257 -217.160433 
L 612.447938 -214.607897 
L 613.119246 -212.055361 
L 613.653807 -209.502825 
L 614.051055 -206.950289 
L 614.312391 -204.397754 
L 614.44096 -201.845218 
L 614.441376 -199.292682 
L 614.319411 -196.740146 
L 614.081649 -194.18761 
L 613.735141 -191.635074 
L 613.287061 -189.082538 
L 612.744391 -186.530002 
L 612.11364 -183.977466 
L 611.400621 -181.42493 
L 610.610285 -178.872394 
L 609.746639 -176.319858 
L 608.812721 -173.767323 
L 607.81067 -171.214787 
L 606.741848 -168.662251 
L 605.607039 -166.109715 
L 604.406693 -163.557179 
L 603.141202 -161.004643 
L 601.8112 -158.452107 
L 600.417865 -155.899571 
L 598.963196 -153.347035 
L 597.450264 -150.794499 
L 595.883407 -148.241963 
L 594.268365 -145.689428 
L 592.612339 -143.136892 
L 590.923981 -140.584356 
L 589.213301 -138.03182 
L 587.491497 -135.479284 
L 585.770723 -132.926748 
L 584.063799 -130.374212 
L 582.383879 -127.821676 
L 580.744087 -125.26914 
L 579.157151 -122.716604 
L 577.635032 -120.164068 
L 576.188588 -117.611533 
L 574.82726 -115.058997 
L 573.55882 -112.506461 
L 572.389169 -109.953925 
L 571.322202 -107.401389 
L 570.359745 -104.848853 
L 569.501556 -102.296317 
L 568.745393 -99.743781 
L 568.087149 -97.191245 
L 567.521031 -94.638709 
L 567.039789 -92.086173 
L 566.634981 -89.533638 
L 566.297255 -86.981102 
L 566.016651 -84.428566 
L 565.782894 -81.87603 
L 565.585691 -79.323494 
L 565.415 -76.770958 
L 565.261277 -74.218422 
L 565.115695 -71.665886 
L 564.970323 -69.11335 
L 564.818264 -66.560814 
L 564.653759 -64.008278 
L 564.472245 -61.455743 
L 564.270373 -58.903207 
L 564.045991 -56.350671 
L 563.798094 -53.798135 
z
" style="stroke: #404040"/>
    </defs>
    <g clip-path="url(#pabe8c18559)">
     <use xlink:href="#m970bc83a4b" x="0" y="420.076253" style="fill: #90389f; stroke: #404040"/>
    </g>
   </g>
   <g id="line2d_6">
    <path d="M 119.854469 340.105932 
L 119.854469 77.67191 
" clip-path="url(#pabe8c18559)" style="fill: none; stroke: #404040; stroke-width: 1.5; stroke-linecap: round"/>
   </g>
   <g id="line2d_7">
    <path d="M 119.854469 240.343022 
L 119.854469 166.45556 
" clip-path="url(#pabe8c18559)" style="fill: none; stroke: #404040; stroke-width: 4.5; stroke-linecap: round"/>
   </g>
   <g id="line2d_8">
    <path d="M 119.854469 201.529849 
" clip-path="url(#pabe8c18559)" style="fill: none; stroke: #404040; stroke-width: 1.2; stroke-linecap: round"/>
    <defs>
     <path id="mef6e042401" d="M 1.875 0 
L -1.875 -0 
" style="stroke: #ffffff; stroke-width: 0.9"/>
    </defs>
    <g clip-path="url(#pabe8c18559)">
     <use xlink:href="#mef6e042401" x="119.854469" y="201.529849" style="fill: #ffffff; stroke: #ffffff; stroke-width: 0.9"/>
    </g>
   </g>
   <g id="line2d_9">
    <path d="M 265.321206 342.598521 
L 265.321206 98.146749 
" clip-path="url(#pabe8c18559)" style="fill: none; stroke: #404040; stroke-width: 1.5; stroke-linecap: round"/>
   </g>
   <g id="line2d_10">
    <path d="M 265.321206 254.022588 
L 265.321206 186.945235 
" clip-path="url(#pabe8c18559)" style="fill: none; stroke: #404040; stroke-width: 4.5; stroke-linecap: round"/>
   </g>
   <g id="line2d_11">
    <path d="M 265.321206 218.147109 
" clip-path="url(#pabe8c18559)" style="fill: none; stroke: #404040; stroke-width: 1.2; stroke-linecap: round"/>
    <g clip-path="url(#pabe8c18559)">
     <use xlink:href="#mef6e042401" x="265.321206" y="218.147109" style="fill: #ffffff; stroke: #ffffff; stroke-width: 0.9"/>
    </g>
   </g>
   <g id="line2d_12">
    <path d="M 410.787944 334.289891 
L 410.787944 97.434581 
" clip-path="url(#pabe8c18559)" style="fill: none; stroke: #404040; stroke-width: 1.5; stroke-linecap: round"/>
   </g>
   <g id="line2d_13">
    <path d="M 410.787944 237.375654 
L 410.787944 170.135096 
" clip-path="url(#pabe8c18559)" style="fill: none; stroke: #404040; stroke-width: 4.5; stroke-linecap: round"/>
   </g>
   <g id="line2d_14">
    <path d="M 410.787944 193.814692 
" clip-path="url(#pabe8c18559)" style="fill: none; stroke: #404040; stroke-width: 1.2; stroke-linecap: round"/>
    <g clip-path="url(#pabe8c18559)">
     <use xlink:href="#mef6e042401" x="410.787944" y="193.814692" style="fill: #ffffff; stroke: #ffffff; stroke-width: 0.9"/>
    </g>
   </g>
   <g id="line2d_15">
    <path d="M 556.254681 343.0733 
L 556.254681 113.577063 
" clip-path="url(#pabe8c18559)" style="fill: none; stroke: #404040; stroke-width: 1.5; stroke-linecap: round"/>
   </g>
   <g id="line2d_16">
    <path d="M 556.254681 259.957324 
L 556.254681 190.16483 
" clip-path="url(#pabe8c18559)" style="fill: none; stroke: #404040; stroke-width: 4.5; stroke-linecap: round"/>
   </g>
   <g id="line2d_17">
    <path d="M 556.254681 219.393404 
" clip-path="url(#pabe8c18559)" style="fill: none; stroke: #404040; stroke-width: 1.2; stroke-linecap: round"/>
    <g clip-path="url(#pabe8c18559)">
     <use xlink:href="#mef6e042401" x="556.254681" y="219.393404" style="fill: #ffffff; stroke: #ffffff; stroke-width: 0.9"/>
    </g>
   </g>
   <g id="patch_3">
    <path d="M 47.1211 382.01407 
L 47.1211 35.82312 
" style="fill: none; stroke: #cccccc; stroke-linejoin: miter; stroke-linecap: square"/>
   </g>
   <g id="patch_4">
    <path d="M 628.98805 382.01407 
L 628.98805 35.82312 
" style="fill: none; stroke: #cccccc; stroke-linejoin: miter; stroke-linecap: square"/>
   </g>
   <g id="patch_5">
    <path d="M 47.1211 382.01407 
L 628.98805 382.01407 
" style="fill: none; stroke: #cccccc; stroke-linejoin: miter; stroke-linecap: square"/>
   </g>
   <g id="patch_6">
    <path d="M 47.1211 35.82312 
L 628.98805 35.82312 
" style="fill: none; stroke: #cccccc; stroke-linejoin: miter; stroke-linecap: square"/>
   </g>
   <g id="text_11">
    <!-- n=209 -->
    <g transform="translate(105.812281 44.83383) scale(0.1 -0.1)">
     <defs>
      <path id="ArialMT-3d" d="M 3381 2694 
L 356 2694 
L 356 3219 
L 3381 3219 
L 3381 2694 
z
M 3381 1303 
L 356 1303 
L 356 1828 
L 3381 1828 
L 3381 1303 
z
" transform="scale(0.015625)"/>
      <path id="ArialMT-39" d="M 350 1059 
L 891 1109 
Q 959 728 1153 556 
Q 1347 384 1650 384 
Q 1909 384 2104 503 
Q 2300 622 2425 820 
Q 2550 1019 2634 1356 
Q 2719 1694 2719 2044 
Q 2719 2081 2716 2156 
Q 2547 1888 2255 1720 
Q 1963 1553 1622 1553 
Q 1053 1553 659 1965 
Q 266 2378 266 3053 
Q 266 3750 677 4175 
Q 1088 4600 1706 4600 
Q 2153 4600 2523 4359 
Q 2894 4119 3086 3673 
Q 3278 3228 3278 2384 
Q 3278 1506 3087 986 
Q 2897 466 2520 194 
Q 2144 -78 1638 -78 
Q 1100 -78 759 220 
Q 419 519 350 1059 
z
M 2653 3081 
Q 2653 3566 2395 3850 
Q 2138 4134 1775 4134 
Q 1400 4134 1122 3828 
Q 844 3522 844 3034 
Q 844 2597 1108 2323 
Q 1372 2050 1759 2050 
Q 2150 2050 2401 2323 
Q 2653 2597 2653 3081 
z
" transform="scale(0.015625)"/>
     </defs>
     <use xlink:href="#ArialMT-6e"/>
     <use xlink:href="#ArialMT-3d" transform="translate(55.615234 0)"/>
     <use xlink:href="#ArialMT-32" transform="translate(114.013672 0)"/>
     <use xlink:href="#ArialMT-30" transform="translate(169.628906 0)"/>
     <use xlink:href="#ArialMT-39" transform="translate(225.244141 0)"/>
    </g>
   </g>
   <g id="text_12">
    <!-- n=286 -->
    <g transform="translate(251.279019 68.684346) scale(0.1 -0.1)">
     <use xlink:href="#ArialMT-6e"/>
     <use xlink:href="#ArialMT-3d" transform="translate(55.615234 0)"/>
     <use xlink:href="#ArialMT-32" transform="translate(114.013672 0)"/>
     <use xlink:href="#ArialMT-38" transform="translate(169.628906 0)"/>
     <use xlink:href="#ArialMT-36" transform="translate(225.244141 0)"/>
    </g>
   </g>
   <g id="text_13">
    <!-- n=67 -->
    <g transform="translate(399.526225 91.626848) scale(0.1 -0.1)">
     <defs>
      <path id="ArialMT-37" d="M 303 3981 
L 303 4522 
L 3269 4522 
L 3269 4084 
Q 2831 3619 2401 2847 
Q 1972 2075 1738 1259 
Q 1569 684 1522 0 
L 944 0 
Q 953 541 1156 1306 
Q 1359 2072 1739 2783 
Q 2119 3494 2547 3981 
L 303 3981 
z
" transform="scale(0.015625)"/>
     </defs>
     <use xlink:href="#ArialMT-6e"/>
     <use xlink:href="#ArialMT-3d" transform="translate(55.615234 0)"/>
     <use xlink:href="#ArialMT-36" transform="translate(114.013672 0)"/>
     <use xlink:href="#ArialMT-37" transform="translate(169.628906 0)"/>
    </g>
   </g>
   <g id="text_14">
    <!-- n=28 -->
    <g transform="translate(544.992962 108.09218) scale(0.1 -0.1)">
     <use xlink:href="#ArialMT-6e"/>
     <use xlink:href="#ArialMT-3d" transform="translate(55.615234 0)"/>
     <use xlink:href="#ArialMT-32" transform="translate(114.013672 0)"/>
     <use xlink:href="#ArialMT-38" transform="translate(169.628906 0)"/>
    </g>
   </g>
   <g id="text_15">
    <!-- tGJS Distribution by MSI  TP53 Stratum -->
    <g style="fill: #262626" transform="translate(224.595775 16.28505) scale(0.1248 -0.1248)">
     <defs>
      <path id="ArialMT-73" d="M 197 991 
L 753 1078 
Q 800 744 1014 566 
Q 1228 388 1613 388 
Q 2000 388 2187 545 
Q 2375 703 2375 916 
Q 2375 1106 2209 1216 
Q 2094 1291 1634 1406 
Q 1016 1563 777 1677 
Q 538 1791 414 1992 
Q 291 2194 291 2438 
Q 291 2659 392 2848 
Q 494 3038 669 3163 
Q 800 3259 1026 3326 
Q 1253 3394 1513 3394 
Q 1903 3394 2198 3281 
Q 2494 3169 2634 2976 
Q 2775 2784 2828 2463 
L 2278 2388 
Q 2241 2644 2061 2787 
Q 1881 2931 1553 2931 
Q 1166 2931 1000 2803 
Q 834 2675 834 2503 
Q 834 2394 903 2306 
Q 972 2216 1119 2156 
Q 1203 2125 1616 2013 
Q 2213 1853 2448 1751 
Q 2684 1650 2818 1456 
Q 2953 1263 2953 975 
Q 2953 694 2789 445 
Q 2625 197 2315 61 
Q 2006 -75 1616 -75 
Q 969 -75 630 194 
Q 291 463 197 991 
z
" transform="scale(0.015625)"/>
      <path id="ArialMT-62" d="M 941 0 
L 419 0 
L 419 4581 
L 981 4581 
L 981 2947 
Q 1338 3394 1891 3394 
Q 2197 3394 2470 3270 
Q 2744 3147 2920 2923 
Q 3097 2700 3197 2384 
Q 3297 2069 3297 1709 
Q 3297 856 2875 390 
Q 2453 -75 1863 -75 
Q 1275 -75 941 416 
L 941 0 
z
M 934 1684 
Q 934 1088 1097 822 
Q 1363 388 1816 388 
Q 2184 388 2453 708 
Q 2722 1028 2722 1663 
Q 2722 2313 2464 2622 
Q 2206 2931 1841 2931 
Q 1472 2931 1203 2611 
Q 934 2291 934 1684 
z
" transform="scale(0.015625)"/>
      <path id="ArialMT-79" d="M 397 -1278 
L 334 -750 
Q 519 -800 656 -800 
Q 844 -800 956 -737 
Q 1069 -675 1141 -563 
Q 1194 -478 1313 -144 
Q 1328 -97 1363 -6 
L 103 3319 
L 709 3319 
L 1400 1397 
Q 1534 1031 1641 628 
Q 1738 1016 1872 1384 
L 2581 3319 
L 3144 3319 
L 1881 -56 
Q 1678 -603 1566 -809 
Q 1416 -1088 1222 -1217 
Q 1028 -1347 759 -1347 
Q 597 -1347 397 -1278 
z
" transform="scale(0.015625)"/>
      <path id="ArialMT-d7" d="M 503 1278 
L 1488 2263 
L 506 3244 
L 888 3625 
L 1869 2644 
L 2847 3622 
L 3222 3244 
L 2247 2266 
L 3228 1284 
L 2847 903 
L 1866 1884 
L 881 900 
L 503 1278 
z
" transform="scale(0.015625)"/>
     </defs>
     <use xlink:href="#ArialMT-74"/>
     <use xlink:href="#ArialMT-47" transform="translate(27.783203 0)"/>
     <use xlink:href="#ArialMT-4a" transform="translate(105.566406 0)"/>
     <use xlink:href="#ArialMT-53" transform="translate(155.566406 0)"/>
     <use xlink:href="#ArialMT-20" transform="translate(222.265625 0)"/>
     <use xlink:href="#ArialMT-44" transform="translate(250.048828 0)"/>
     <use xlink:href="#ArialMT-69" transform="translate(322.265625 0)"/>
     <use xlink:href="#ArialMT-73" transform="translate(344.482422 0)"/>
     <use xlink:href="#ArialMT-74" transform="translate(394.482422 0)"/>
     <use xlink:href="#ArialMT-72" transform="translate(422.265625 0)"/>
     <use xlink:href="#ArialMT-69" transform="translate(455.566406 0)"/>
     <use xlink:href="#ArialMT-62" transform="translate(477.783203 0)"/>
     <use xlink:href="#ArialMT-75" transform="translate(533.398438 0)"/>
     <use xlink:href="#ArialMT-74" transform="translate(589.013672 0)"/>
     <use xlink:href="#ArialMT-69" transform="translate(616.796875 0)"/>
     <use xlink:href="#ArialMT-6f" transform="translate(639.013672 0)"/>
     <use xlink:href="#ArialMT-6e" transform="translate(694.628906 0)"/>
     <use xlink:href="#ArialMT-20" transform="translate(750.244141 0)"/>
     <use xlink:href="#ArialMT-62" transform="translate(778.027344 0)"/>
     <use xlink:href="#ArialMT-79" transform="translate(833.642578 0)"/>
     <use xlink:href="#ArialMT-20" transform="translate(883.642578 0)"/>
     <use xlink:href="#ArialMT-4d" transform="translate(911.425781 0)"/>
     <use xlink:href="#ArialMT-53" transform="translate(994.726562 0)"/>
     <use xlink:href="#ArialMT-49" transform="translate(1061.425781 0)"/>
     <use xlink:href="#ArialMT-20" transform="translate(1089.208984 0)"/>
     <use xlink:href="#ArialMT-d7" transform="translate(1116.992188 0)"/>
     <use xlink:href="#ArialMT-20" transform="translate(1175.390625 0)"/>
     <use xlink:href="#ArialMT-54" transform="translate(1201.423828 0)"/>
     <use xlink:href="#ArialMT-50" transform="translate(1262.507812 0)"/>
     <use xlink:href="#ArialMT-35" transform="translate(1329.207031 0)"/>
     <use xlink:href="#ArialMT-33" transform="translate(1384.822266 0)"/>
     <use xlink:href="#ArialMT-20" transform="translate(1440.4375 0)"/>
     <use xlink:href="#ArialMT-53" transform="translate(1468.220703 0)"/>
     <use xlink:href="#ArialMT-74" transform="translate(1534.919922 0)"/>
     <use xlink:href="#ArialMT-72" transform="translate(1562.703125 0)"/>
     <use xlink:href="#ArialMT-61" transform="translate(1596.003906 0)"/>
     <use xlink:href="#ArialMT-74" transform="translate(1651.619141 0)"/>
     <use xlink:href="#ArialMT-75" transform="translate(1679.402344 0)"/>
     <use xlink:href="#ArialMT-6d" transform="translate(1735.017578 0)"/>
    </g>
    <!-- (TCGA COADREAD, n=592) -->
    <g style="fill: #262626" transform="translate(258.8173 29.82312) scale(0.1248 -0.1248)">
     <defs>
      <path id="ArialMT-2c" d="M 569 0 
L 569 641 
L 1209 641 
L 1209 0 
Q 1209 -353 1084 -570 
Q 959 -788 688 -906 
L 531 -666 
Q 709 -588 793 -436 
Q 878 -284 888 0 
L 569 0 
z
" transform="scale(0.015625)"/>
     </defs>
     <use xlink:href="#ArialMT-28"/>
     <use xlink:href="#ArialMT-54" transform="translate(33.300781 0)"/>
     <use xlink:href="#ArialMT-43" transform="translate(94.384766 0)"/>
     <use xlink:href="#ArialMT-47" transform="translate(166.601562 0)"/>
     <use xlink:href="#ArialMT-41" transform="translate(244.384766 0)"/>
     <use xlink:href="#ArialMT-20" transform="translate(305.583984 0)"/>
     <use xlink:href="#ArialMT-43" transform="translate(333.367188 0)"/>
     <use xlink:href="#ArialMT-4f" transform="translate(405.583984 0)"/>
     <use xlink:href="#ArialMT-41" transform="translate(483.367188 0)"/>
     <use xlink:href="#ArialMT-44" transform="translate(550.066406 0)"/>
     <use xlink:href="#ArialMT-52" transform="translate(622.283203 0)"/>
     <use xlink:href="#ArialMT-45" transform="translate(694.5 0)"/>
     <use xlink:href="#ArialMT-41" transform="translate(761.199219 0)"/>
     <use xlink:href="#ArialMT-44" transform="translate(827.898438 0)"/>
     <use xlink:href="#ArialMT-2c" transform="translate(900.115234 0)"/>
     <use xlink:href="#ArialMT-20" transform="translate(927.898438 0)"/>
     <use xlink:href="#ArialMT-6e" transform="translate(955.681641 0)"/>
     <use xlink:href="#ArialMT-3d" transform="translate(1011.296875 0)"/>
     <use xlink:href="#ArialMT-35" transform="translate(1069.695312 0)"/>
     <use xlink:href="#ArialMT-39" transform="translate(1125.310547 0)"/>
     <use xlink:href="#ArialMT-32" transform="translate(1180.925781 0)"/>
     <use xlink:href="#ArialMT-29" transform="translate(1236.541016 0)"/>
    </g>
   </g>
  </g>
 </g>
 <defs>
  <clipPath id="pabe8c18559">
   <rect x="47.1211" y="35.82312" width="581.86695" height="346.19095"/>
  </clipPath>
 </defs>
</svg>
